<?xml version="1.0" encoding="UTF-8" standalone="no"?>
<!DOCTYPE svg PUBLIC "-//W3C//DTD SVG 1.1//EN" "http://www.w3.org/Graphics/SVG/1.1/DTD/svg11.dtd">
<svg width="100%" height="100%" viewBox="0 0 917 298" version="1.1" xmlns="http://www.w3.org/2000/svg" xmlns:xlink="http://www.w3.org/1999/xlink" xml:space="preserve" xmlns:serif="http://www.serif.com/" style="fill-rule:evenodd;clip-rule:evenodd;stroke-linecap:round;stroke-miterlimit:1.5;">
    <g transform="matrix(1.66667,0,0,1.66667,0,0)">
        <g transform="matrix(1.53987,0,0,1.53987,6.28085,-4.6109)">
            <rect x="10.465" y="13.214" width="95.589" height="95.589" style="fill:none;stroke:white;stroke-width:3.25px;"/>
        </g>
        <g transform="matrix(0.686367,0,0,0.686367,96.7982,88.252)">
            <rect x="10.465" y="13.214" width="95.589" height="95.589" style="fill:rgb(170,206,99);stroke:white;stroke-width:7.28px;"/>
        </g>
        <g transform="matrix(1,0,0,1,82.2338,6.48919)">
            <path d="M129.868,52.878L129.868,27.858L136.613,27.858L136.613,52.878L129.868,52.878ZM129.868,23.643L129.868,18.014L136.613,18.014L136.613,23.643L129.868,23.643Z" style="fill:white;fill-rule:nonzero;stroke:white;stroke-width:1px;stroke-linecap:butt;stroke-linejoin:round;stroke-miterlimit:2;"/>
            <path d="M145.044,52.878L145.044,27.858L151.789,27.858L151.789,32.575C153.992,29.051 156.832,27.288 160.311,27.288C162.544,27.288 164.306,27.995 165.597,29.408C166.889,30.82 167.534,32.75 167.534,35.195L167.534,52.878L160.789,52.878L160.789,36.859C160.789,34.018 159.848,32.598 157.964,32.598C155.822,32.598 153.764,34.109 151.789,37.132L151.789,52.878L145.044,52.878Z" style="fill:white;fill-rule:nonzero;stroke:white;stroke-width:1px;stroke-linecap:butt;stroke-linejoin:round;stroke-miterlimit:2;"/>
            <path d="M191.437,52.878L191.437,48.161C189.706,51.685 186.979,53.447 183.257,53.447C180.249,53.447 177.887,52.346 176.17,50.143C174.454,47.941 173.595,44.91 173.595,41.051C173.595,36.859 174.564,33.517 176.501,31.025C178.438,28.534 181.039,27.288 184.305,27.288C186.918,27.288 189.295,28.321 191.437,30.387L191.437,16.898L198.205,16.898L198.205,52.878L191.437,52.878ZM191.437,34.398C189.812,32.575 188.072,31.663 186.219,31.663C184.563,31.663 183.242,32.461 182.254,34.056C181.267,35.651 180.773,37.793 180.773,40.482C180.773,45.601 182.414,48.161 185.695,48.161C187.7,48.161 189.614,46.877 191.437,44.31L191.437,34.398Z" style="fill:white;fill-rule:nonzero;stroke:white;stroke-width:1px;stroke-linecap:butt;stroke-linejoin:round;stroke-miterlimit:2;"/>
            <path d="M222.085,52.878L222.085,48.161C219.898,51.685 217.057,53.447 213.563,53.447C211.33,53.447 209.568,52.741 208.276,51.328C206.985,49.915 206.34,47.986 206.34,45.54L206.34,27.858L213.084,27.858L213.084,43.877C213.084,46.718 214.034,48.138 215.933,48.138C218.059,48.138 220.11,46.626 222.085,43.603L222.085,27.858L228.83,27.858L228.83,52.878L222.085,52.878Z" style="fill:white;fill-rule:nonzero;stroke:white;stroke-width:1px;stroke-linecap:butt;stroke-linejoin:round;stroke-miterlimit:2;"/>
            <path d="M236.6,52.08L236.6,47.135C239.942,48.533 242.798,49.232 245.168,49.232C247.932,49.232 249.315,48.29 249.315,46.406C249.315,45.191 248.176,44.128 245.897,43.216L243.618,42.305C241.142,41.302 239.372,40.223 238.309,39.069C237.246,37.914 236.714,36.487 236.714,34.785C236.714,32.415 237.618,30.573 239.426,29.259C241.233,27.945 243.763,27.288 247.013,27.288C249.049,27.288 251.472,27.585 254.282,28.177L254.282,32.917C251.578,31.975 249.338,31.504 247.56,31.504C244.765,31.504 243.368,32.37 243.368,34.102C243.368,35.241 244.401,36.205 246.467,36.995L248.426,37.747C251.358,38.856 253.397,39.98 254.544,41.12C255.691,42.259 256.265,43.725 256.265,45.518C256.265,47.872 255.289,49.782 253.337,51.248C251.385,52.714 248.844,53.447 245.715,53.447C242.707,53.447 239.669,52.992 236.6,52.08Z" style="fill:white;fill-rule:nonzero;stroke:white;stroke-width:1px;stroke-linecap:butt;stroke-linejoin:round;stroke-miterlimit:2;"/>
            <path d="M276.545,52.741C274.934,53.212 273.666,53.447 272.739,53.447C266.891,53.447 263.967,50.713 263.967,45.244L263.967,32.074L261.164,32.074L261.164,27.858L263.967,27.858L263.967,23.643L270.711,22.868L270.711,27.858L276.066,27.858L276.066,32.074L270.711,32.074L270.711,44.355C270.711,47.424 271.965,48.958 274.471,48.958C275.048,48.958 275.74,48.852 276.545,48.639L276.545,52.741Z" style="fill:white;fill-rule:nonzero;stroke:white;stroke-width:1px;stroke-linecap:butt;stroke-linejoin:round;stroke-miterlimit:2;"/>
            <path d="M282.56,52.878L282.56,27.858L289.305,27.858L289.305,32.575C291.052,29.051 293.71,27.288 297.28,27.288C297.706,27.288 298.123,27.334 298.534,27.425L298.534,33.441C297.577,33.091 296.688,32.917 295.868,32.917C293.179,32.917 290.991,34.276 289.305,36.995L289.305,52.878L282.56,52.878Z" style="fill:white;fill-rule:nonzero;stroke:white;stroke-width:1px;stroke-linecap:butt;stroke-linejoin:round;stroke-miterlimit:2;"/>
            <path d="M303.775,52.878L303.775,27.858L310.519,27.858L310.519,52.878L303.775,52.878ZM303.775,23.643L303.775,18.014L310.519,18.014L310.519,23.643L303.775,23.643Z" style="fill:white;fill-rule:nonzero;stroke:white;stroke-width:1px;stroke-linecap:butt;stroke-linejoin:round;stroke-miterlimit:2;"/>
            <path d="M331.209,50.189C328.961,52.361 326.553,53.447 323.986,53.447C321.799,53.447 320.021,52.779 318.654,51.442C317.287,50.105 316.603,48.373 316.603,46.247C316.603,43.482 317.708,41.351 319.919,39.855C322.129,38.359 325.293,37.611 329.409,37.611L331.209,37.611L331.209,35.332C331.209,32.734 329.728,31.436 326.766,31.436C324.138,31.436 321.48,32.18 318.791,33.669L318.791,29.02C321.844,27.866 324.867,27.288 327.86,27.288C334.407,27.288 337.681,29.894 337.681,35.104L337.681,46.178C337.681,48.138 338.311,49.118 339.572,49.118C339.8,49.118 340.096,49.087 340.461,49.027L340.62,52.809C339.192,53.235 337.931,53.447 336.838,53.447C334.073,53.447 332.296,52.361 331.506,50.189L331.209,50.189ZM331.209,46.566L331.209,41.484L329.614,41.484C325.255,41.484 323.075,42.852 323.075,45.586C323.075,46.513 323.39,47.291 324.02,47.922C324.651,48.552 325.429,48.867 326.356,48.867C327.936,48.867 329.554,48.1 331.209,46.566Z" style="fill:white;fill-rule:nonzero;stroke:white;stroke-width:1px;stroke-linecap:butt;stroke-linejoin:round;stroke-miterlimit:2;"/>
            <rect x="346.385" y="16.898" width="6.745" height="35.98" style="fill:white;fill-rule:nonzero;stroke:white;stroke-width:1px;stroke-linecap:butt;stroke-linejoin:round;stroke-miterlimit:2;"/>
            <path d="M129.207,98.747L129.207,93.802C132.549,95.2 135.405,95.898 137.775,95.898C140.54,95.898 141.922,94.957 141.922,93.073C141.922,91.858 140.783,90.794 138.504,89.883L136.226,88.971C133.75,87.969 131.98,86.89 130.916,85.736C129.853,84.581 129.321,83.153 129.321,81.452C129.321,79.082 130.225,77.24 132.033,75.926C133.841,74.612 136.37,73.955 139.621,73.955C141.656,73.955 144.079,74.251 146.89,74.844L146.89,79.583C144.186,78.641 141.945,78.171 140.168,78.171C137.373,78.171 135.975,79.036 135.975,80.768C135.975,81.908 137.008,82.872 139.074,83.662L141.034,84.414C143.965,85.523 146.005,86.647 147.152,87.786C148.299,88.926 148.872,90.392 148.872,92.184C148.872,94.539 147.896,96.449 145.944,97.915C143.992,99.381 141.451,100.114 138.322,100.114C135.314,100.114 132.276,99.658 129.207,98.747Z" style="fill:white;fill-rule:nonzero;stroke:white;stroke-width:1px;stroke-linecap:butt;stroke-linejoin:round;stroke-miterlimit:2;"/>
            <path d="M171.727,99.544L171.727,94.827C169.539,98.352 166.699,100.114 163.205,100.114C160.972,100.114 159.21,99.408 157.918,97.995C156.627,96.582 155.982,94.653 155.982,92.207L155.982,74.525L162.726,74.525L162.726,90.544C162.726,93.384 163.676,94.805 165.575,94.805C167.701,94.805 169.752,93.293 171.727,90.27L171.727,74.525L178.472,74.525L178.472,99.544L171.727,99.544Z" style="fill:white;fill-rule:nonzero;stroke:white;stroke-width:1px;stroke-linecap:butt;stroke-linejoin:round;stroke-miterlimit:2;"/>
            <path d="M186.242,98.747L186.242,93.802C189.584,95.2 192.44,95.898 194.81,95.898C197.574,95.898 198.957,94.957 198.957,93.073C198.957,91.858 197.817,90.794 195.539,89.883L193.26,88.971C190.784,87.969 189.014,86.89 187.951,85.736C186.888,84.581 186.356,83.153 186.356,81.452C186.356,79.082 187.26,77.24 189.067,75.926C190.875,74.612 193.405,73.955 196.655,73.955C198.691,73.955 201.114,74.251 203.924,74.844L203.924,79.583C201.22,78.641 198.98,78.171 197.202,78.171C194.407,78.171 193.01,79.036 193.01,80.768C193.01,81.908 194.043,82.872 196.108,83.662L198.068,84.414C201,85.523 203.039,86.647 204.186,87.786C205.333,88.926 205.907,90.392 205.907,92.184C205.907,94.539 204.931,96.449 202.979,97.915C201.027,99.381 198.486,100.114 195.357,100.114C192.349,100.114 189.311,99.658 186.242,98.747Z" style="fill:white;fill-rule:nonzero;stroke:white;stroke-width:1px;stroke-linecap:butt;stroke-linejoin:round;stroke-miterlimit:2;"/>
            <path d="M226.187,99.408C224.576,99.878 223.308,100.114 222.381,100.114C216.533,100.114 213.608,97.38 213.608,91.911L213.608,78.74L210.806,78.74L210.806,74.525L213.608,74.525L213.608,70.309L220.353,69.534L220.353,74.525L225.708,74.525L225.708,78.74L220.353,78.74L220.353,91.022C220.353,94.091 221.607,95.625 224.113,95.625C224.69,95.625 225.381,95.519 226.187,95.306L226.187,99.408Z" style="fill:white;fill-rule:nonzero;stroke:white;stroke-width:1px;stroke-linecap:butt;stroke-linejoin:round;stroke-miterlimit:2;"/>
            <path d="M244.461,96.855C242.213,99.028 239.805,100.114 237.238,100.114C235.051,100.114 233.273,99.445 231.906,98.109C230.539,96.772 229.855,95.04 229.855,92.913C229.855,90.149 230.96,88.018 233.171,86.522C235.381,85.025 238.544,84.277 242.661,84.277L244.461,84.277L244.461,81.999C244.461,79.401 242.98,78.102 240.018,78.102C237.39,78.102 234.732,78.847 232.043,80.335L232.043,75.687C235.096,74.532 238.119,73.955 241.112,73.955C247.659,73.955 250.933,76.56 250.933,81.771L250.933,92.845C250.933,94.805 251.563,95.784 252.824,95.784C253.052,95.784 253.348,95.754 253.713,95.693L253.872,99.476C252.444,99.901 251.183,100.114 250.09,100.114C247.325,100.114 245.548,99.028 244.758,96.855L244.461,96.855ZM244.461,93.232L244.461,88.151L242.866,88.151C238.506,88.151 236.327,89.518 236.327,92.253C236.327,93.179 236.642,93.958 237.272,94.588C237.903,95.219 238.681,95.534 239.608,95.534C241.188,95.534 242.806,94.767 244.461,93.232Z" style="fill:white;fill-rule:nonzero;stroke:white;stroke-width:1px;stroke-linecap:butt;stroke-linejoin:round;stroke-miterlimit:2;"/>
            <path d="M259.637,99.544L259.637,74.525L266.382,74.525L266.382,99.544L259.637,99.544ZM259.637,70.309L259.637,64.681L266.382,64.681L266.382,70.309L259.637,70.309Z" style="fill:white;fill-rule:nonzero;stroke:white;stroke-width:1px;stroke-linecap:butt;stroke-linejoin:round;stroke-miterlimit:2;"/>
            <path d="M274.813,99.544L274.813,74.525L281.558,74.525L281.558,79.242C283.76,75.717 286.601,73.955 290.08,73.955C292.313,73.955 294.075,74.661 295.366,76.074C296.658,77.487 297.303,79.416 297.303,81.862L297.303,99.544L290.558,99.544L290.558,83.525C290.558,80.685 289.617,79.264 287.733,79.264C285.591,79.264 283.533,80.776 281.558,83.799L281.558,99.544L274.813,99.544Z" style="fill:white;fill-rule:nonzero;stroke:white;stroke-width:1px;stroke-linecap:butt;stroke-linejoin:round;stroke-miterlimit:2;"/>
            <path d="M317.72,96.855C315.472,99.028 313.064,100.114 310.497,100.114C308.309,100.114 306.532,99.445 305.164,98.109C303.797,96.772 303.114,95.04 303.114,92.913C303.114,90.149 304.219,88.018 306.429,86.522C308.639,85.025 311.803,84.277 315.92,84.277L317.72,84.277L317.72,81.999C317.72,79.401 316.239,78.102 313.276,78.102C310.648,78.102 307.99,78.847 305.301,80.335L305.301,75.687C308.355,74.532 311.378,73.955 314.37,73.955C320.918,73.955 324.191,76.56 324.191,81.771L324.191,92.845C324.191,94.805 324.822,95.784 326.082,95.784C326.31,95.784 326.607,95.754 326.971,95.693L327.131,99.476C325.703,99.901 324.442,100.114 323.348,100.114C320.583,100.114 318.806,99.028 318.016,96.855L317.72,96.855ZM317.72,93.232L317.72,88.151L316.125,88.151C311.765,88.151 309.585,89.518 309.585,92.253C309.585,93.179 309.9,93.958 310.531,94.588C311.161,95.219 311.94,95.534 312.866,95.534C314.446,95.534 316.064,94.767 317.72,93.232Z" style="fill:white;fill-rule:nonzero;stroke:white;stroke-width:1px;stroke-linecap:butt;stroke-linejoin:round;stroke-miterlimit:2;"/>
            <path d="M332.896,99.544L332.896,63.564L339.64,63.564L339.64,79.242C341.372,75.717 344.099,73.955 347.821,73.955C350.829,73.955 353.195,75.056 354.919,77.259C356.643,79.462 357.505,82.492 357.505,86.351C357.505,90.528 356.533,93.867 354.588,96.366C352.644,98.864 350.046,100.114 346.795,100.114C344,100.114 341.615,99.081 339.64,97.015L338.387,99.544L332.896,99.544ZM339.64,93.005C341.281,94.827 343.028,95.739 344.881,95.739C346.537,95.739 347.859,94.938 348.846,93.335C349.834,91.732 350.327,89.594 350.327,86.921C350.327,81.801 348.679,79.242 345.383,79.242C343.393,79.242 341.479,80.525 339.64,83.092L339.64,93.005Z" style="fill:white;fill-rule:nonzero;stroke:white;stroke-width:1px;stroke-linecap:butt;stroke-linejoin:round;stroke-miterlimit:2;"/>
            <path d="M363.817,99.544L363.817,74.525L370.562,74.525L370.562,99.544L363.817,99.544ZM363.817,70.309L363.817,64.681L370.562,64.681L370.562,70.309L363.817,70.309Z" style="fill:white;fill-rule:nonzero;stroke:white;stroke-width:1px;stroke-linecap:butt;stroke-linejoin:round;stroke-miterlimit:2;"/>
            <rect x="378.993" y="63.564" width="6.745" height="35.98" style="fill:white;fill-rule:nonzero;stroke:white;stroke-width:1px;stroke-linecap:butt;stroke-linejoin:round;stroke-miterlimit:2;"/>
            <path d="M394.168,99.544L394.168,74.525L400.913,74.525L400.913,99.544L394.168,99.544ZM394.168,70.309L394.168,64.681L400.913,64.681L400.913,70.309L394.168,70.309Z" style="fill:white;fill-rule:nonzero;stroke:white;stroke-width:1px;stroke-linecap:butt;stroke-linejoin:round;stroke-miterlimit:2;"/>
            <path d="M422.241,99.408C420.631,99.878 419.363,100.114 418.436,100.114C412.587,100.114 409.663,97.38 409.663,91.911L409.663,78.74L406.86,78.74L406.86,74.525L409.663,74.525L409.663,70.309L416.408,69.534L416.408,74.525L421.763,74.525L421.763,78.74L416.408,78.74L416.408,91.022C416.408,94.091 417.661,95.625 420.168,95.625C420.745,95.625 421.436,95.519 422.241,95.306L422.241,99.408Z" style="fill:white;fill-rule:nonzero;stroke:white;stroke-width:1px;stroke-linecap:butt;stroke-linejoin:round;stroke-miterlimit:2;"/>
            <path d="M428.348,108.545L434.022,99.544L424.748,74.525L431.994,74.525L438.192,91.25L445.552,74.525L450.679,74.525L435.23,108.545L428.348,108.545Z" style="fill:white;fill-rule:nonzero;stroke:white;stroke-width:1px;stroke-linecap:butt;stroke-linejoin:round;stroke-miterlimit:2;"/>
            <path d="M142.127,143.522C139.879,145.694 137.471,146.781 134.904,146.781C132.717,146.781 130.939,146.112 129.572,144.775C128.205,143.439 127.521,141.707 127.521,139.58C127.521,136.815 128.626,134.685 130.837,133.188C133.047,131.692 136.21,130.944 140.327,130.944L142.127,130.944L142.127,128.665C142.127,126.068 140.646,124.769 137.684,124.769C135.056,124.769 132.398,125.513 129.709,127.002L129.709,122.353C132.762,121.199 135.785,120.622 138.778,120.622C145.325,120.622 148.599,123.227 148.599,128.437L148.599,139.512C148.599,141.471 149.229,142.451 150.49,142.451C150.718,142.451 151.014,142.421 151.379,142.36L151.538,146.143C150.11,146.568 148.849,146.781 147.756,146.781C144.991,146.781 143.214,145.694 142.424,143.522L142.127,143.522ZM142.127,139.899L142.127,134.818L140.532,134.818C136.173,134.818 133.993,136.185 133.993,138.919C133.993,139.846 134.308,140.624 134.938,141.255C135.569,141.885 136.347,142.2 137.274,142.2C138.854,142.2 140.472,141.433 142.127,139.899Z" style="fill:white;fill-rule:nonzero;stroke:white;stroke-width:1px;stroke-linecap:butt;stroke-linejoin:round;stroke-miterlimit:2;"/>
            <path d="M157.303,146.211L157.303,121.191L164.048,121.191L164.048,125.908C166.251,122.384 169.091,120.622 172.57,120.622C174.803,120.622 176.565,121.328 177.857,122.741C179.148,124.154 179.793,126.083 179.793,128.529L179.793,146.211L173.049,146.211L173.049,130.192C173.049,127.351 172.107,125.931 170.223,125.931C168.081,125.931 166.023,127.442 164.048,130.465L164.048,146.211L157.303,146.211Z" style="fill:white;fill-rule:nonzero;stroke:white;stroke-width:1px;stroke-linecap:butt;stroke-linejoin:round;stroke-miterlimit:2;"/>
            <path d="M200.21,143.522C197.962,145.694 195.554,146.781 192.987,146.781C190.799,146.781 189.022,146.112 187.655,144.775C186.288,143.439 185.604,141.707 185.604,139.58C185.604,136.815 186.709,134.685 188.919,133.188C191.13,131.692 194.293,130.944 198.41,130.944L200.21,130.944L200.21,128.665C200.21,126.068 198.729,124.769 195.767,124.769C193.139,124.769 190.48,125.513 187.791,127.002L187.791,122.353C190.845,121.199 193.868,120.622 196.86,120.622C203.408,120.622 206.681,123.227 206.681,128.437L206.681,139.512C206.681,141.471 207.312,142.451 208.573,142.451C208.801,142.451 209.097,142.421 209.461,142.36L209.621,146.143C208.193,146.568 206.932,146.781 205.838,146.781C203.074,146.781 201.296,145.694 200.506,143.522L200.21,143.522ZM200.21,139.899L200.21,134.818L198.615,134.818C194.255,134.818 192.075,136.185 192.075,138.919C192.075,139.846 192.391,140.624 193.021,141.255C193.651,141.885 194.43,142.2 195.357,142.2C196.936,142.2 198.554,141.433 200.21,139.899Z" style="fill:white;fill-rule:nonzero;stroke:white;stroke-width:1px;stroke-linecap:butt;stroke-linejoin:round;stroke-miterlimit:2;"/>
            <rect x="215.386" y="110.231" width="6.745" height="35.98" style="fill:white;fill-rule:nonzero;stroke:white;stroke-width:1px;stroke-linecap:butt;stroke-linejoin:round;stroke-miterlimit:2;"/>
            <path d="M230.653,155.212L236.327,146.211L227.053,121.191L234.299,121.191L240.497,137.917L247.857,121.191L252.983,121.191L237.534,155.212L230.653,155.212Z" style="fill:white;fill-rule:nonzero;stroke:white;stroke-width:1px;stroke-linecap:butt;stroke-linejoin:round;stroke-miterlimit:2;"/>
            <path d="M257.108,145.413L257.108,140.469C260.45,141.866 263.306,142.565 265.676,142.565C268.44,142.565 269.823,141.623 269.823,139.74C269.823,138.524 268.683,137.461 266.405,136.549L264.126,135.638C261.65,134.635 259.88,133.557 258.817,132.402C257.753,131.248 257.222,129.82 257.222,128.118C257.222,125.749 258.126,123.907 259.933,122.593C261.741,121.279 264.27,120.622 267.521,120.622C269.557,120.622 271.98,120.918 274.79,121.51L274.79,126.25C272.086,125.308 269.845,124.837 268.068,124.837C265.273,124.837 263.875,125.703 263.875,127.435C263.875,128.574 264.908,129.539 266.974,130.329L268.934,131.081C271.866,132.19 273.905,133.314 275.052,134.453C276.199,135.592 276.773,137.058 276.773,138.851C276.773,141.205 275.797,143.116 273.844,144.582C271.892,146.048 269.352,146.781 266.222,146.781C263.215,146.781 260.176,146.325 257.108,145.413Z" style="fill:white;fill-rule:nonzero;stroke:white;stroke-width:1px;stroke-linecap:butt;stroke-linejoin:round;stroke-miterlimit:2;"/>
            <path d="M284.155,146.211L284.155,121.191L290.9,121.191L290.9,146.211L284.155,146.211ZM284.155,116.976L284.155,111.348L290.9,111.348L290.9,116.976L284.155,116.976Z" style="fill:white;fill-rule:nonzero;stroke:white;stroke-width:1px;stroke-linecap:butt;stroke-linejoin:round;stroke-miterlimit:2;"/>
            <path d="M298.67,145.413L298.67,140.469C302.012,141.866 304.868,142.565 307.238,142.565C310.003,142.565 311.385,141.623 311.385,139.74C311.385,138.524 310.246,137.461 307.967,136.549L305.689,135.638C303.212,134.635 301.443,133.557 300.379,132.402C299.316,131.248 298.784,129.82 298.784,128.118C298.784,125.749 299.688,123.907 301.496,122.593C303.304,121.279 305.833,120.622 309.084,120.622C311.119,120.622 313.542,120.918 316.353,121.51L316.353,126.25C313.649,125.308 311.408,124.837 309.631,124.837C306.835,124.837 305.438,125.703 305.438,127.435C305.438,128.574 306.471,129.539 308.537,130.329L310.497,131.081C313.428,132.19 315.468,133.314 316.615,134.453C317.762,135.592 318.335,137.058 318.335,138.851C318.335,141.205 317.359,143.116 315.407,144.582C313.455,146.048 310.914,146.781 307.785,146.781C304.777,146.781 301.739,146.325 298.67,145.413Z" style="fill:white;fill-rule:nonzero;stroke:white;stroke-width:1px;stroke-linecap:butt;stroke-linejoin:round;stroke-miterlimit:2;"/>
            <rect x="332.622" y="110.231" width="6.745" height="35.98" style="fill:white;fill-rule:nonzero;stroke:white;stroke-width:1px;stroke-linecap:butt;stroke-linejoin:round;stroke-miterlimit:2;"/>
            <path d="M360.057,143.522C357.809,145.694 355.401,146.781 352.834,146.781C350.646,146.781 348.869,146.112 347.502,144.775C346.135,143.439 345.451,141.707 345.451,139.58C345.451,136.815 346.556,134.685 348.766,133.188C350.977,131.692 354.14,130.944 358.257,130.944L360.057,130.944L360.057,128.665C360.057,126.068 358.576,124.769 355.614,124.769C352.986,124.769 350.327,125.513 347.638,127.002L347.638,122.353C350.692,121.199 353.715,120.622 356.707,120.622C363.255,120.622 366.528,123.227 366.528,128.437L366.528,139.512C366.528,141.471 367.159,142.451 368.42,142.451C368.648,142.451 368.944,142.421 369.308,142.36L369.468,146.143C368.04,146.568 366.779,146.781 365.685,146.781C362.921,146.781 361.143,145.694 360.353,143.522L360.057,143.522ZM360.057,139.899L360.057,134.818L358.462,134.818C354.102,134.818 351.922,136.185 351.922,138.919C351.922,139.846 352.238,140.624 352.868,141.255C353.498,141.885 354.277,142.2 355.204,142.2C356.783,142.2 358.401,141.433 360.057,139.899Z" style="fill:white;fill-rule:nonzero;stroke:white;stroke-width:1px;stroke-linecap:butt;stroke-linejoin:round;stroke-miterlimit:2;"/>
            <path d="M375.233,146.211L375.233,110.231L381.978,110.231L381.978,125.908C383.709,122.384 386.436,120.622 390.158,120.622C393.166,120.622 395.532,121.723 397.256,123.926C398.98,126.128 399.842,129.159 399.842,133.018C399.842,137.195 398.87,140.533 396.926,143.032C394.981,145.531 392.383,146.781 389.133,146.781C386.337,146.781 383.952,145.748 381.978,143.682L380.724,146.211L375.233,146.211ZM381.978,139.671C383.618,141.494 385.365,142.406 387.219,142.406C388.874,142.406 390.196,141.604 391.183,140.002C392.171,138.399 392.664,136.261 392.664,133.587C392.664,128.468 391.016,125.908 387.72,125.908C385.73,125.908 383.816,127.192 381.978,129.759L381.978,139.671Z" style="fill:white;fill-rule:nonzero;stroke:white;stroke-width:1px;stroke-linecap:butt;stroke-linejoin:round;stroke-miterlimit:2;"/>
        </g>
    </g>
</svg>
